<svg xmlns="http://www.w3.org/2000/svg" xmlns:xlink="http://www.w3.org/1999/xlink" width="375" zoomAndPan="magnify" viewBox="0 0 375 374.999991" height="374.999991" preserveAspectRatio="xMidYMid meet" version="1.0"><defs><clipPath id="id1"><path d="M 9.464844 29.246094 L 365 29.246094 L 365 345.746094 L 9.464844 345.746094 Z M 9.464844 29.246094 " clip-rule="nonzero"/></clipPath></defs><g clip-path="url(#id1)"><path fill="rgb(0%, 64.309692%, 93.728638%)" d="M 68.839844 29.246094 C 75.953125 29.246094 82.074219 34.308594 83.4375 41.304688 L 84.363281 49.027344 L 344.5625 49.027344 C 357.117188 49.027344 367.136719 61.546875 363.613281 74.160156 L 330.214844 192.875 C 327.800781 201.40625 320.007812 207.277344 311.164062 207.277344 L 115.039062 207.277344 L 120.730469 236.949219 L 311.289062 236.949219 C 319.511719 236.949219 326.132812 243.5625 326.132812 251.785156 C 326.132812 260.007812 319.511719 266.621094 311.289062 266.621094 L 107.867188 266.621094 C 101.308594 266.621094 95.1875 261.550781 93.828125 254.566406 L 56.554688 58.917969 L 24.308594 58.917969 C 16.113281 58.917969 9.464844 52.273438 9.464844 44.082031 C 9.464844 35.890625 16.113281 29.246094 24.308594 29.246094 Z M 88.632812 316.074219 C 88.632812 299.691406 101.929688 286.402344 118.320312 286.402344 C 134.707031 286.402344 148.007812 299.691406 148.007812 316.074219 C 148.007812 332.457031 134.707031 345.746094 118.320312 345.746094 C 101.929688 345.746094 88.632812 332.457031 88.632812 316.074219 Z M 326.132812 316.074219 C 326.132812 332.457031 312.832031 345.746094 296.445312 345.746094 C 280.054688 345.746094 266.757812 332.457031 266.757812 316.074219 C 266.757812 299.691406 280.054688 286.402344 296.445312 286.402344 C 312.832031 286.402344 326.132812 299.691406 326.132812 316.074219 Z M 326.132812 316.074219 " fill-opacity="1" fill-rule="nonzero"/></g></svg>